<?xml version="1.0" encoding="utf-8"?>
<!-- Generator: Adobe Illustrator 28.1.0, SVG Export Plug-In . SVG Version: 6.00 Build 0)  -->
<svg version="1.1" id="Layer_1" xmlns="http://www.w3.org/2000/svg" xmlns:xlink="http://www.w3.org/1999/xlink" x="0px" y="0px"
	 viewBox="0 0 240 240" enable-background="new 0 0 240 240" xml:space="preserve">
<g id="uuid-0dfa506d-25ef-4386-abbc-ccc745ee3513">
	<rect fill="#000B1D" width="240" height="240"/>
	<path id="uuid-3e40f48c-995d-42dc-b192-7f612ae00ff4" fill="#FA0F00" d="M186.6,175.9h-28.5c-2.5,0.1-4.8-1.4-5.9-3.8l-30.9-72.4
		c-0.2-0.7-1-1.1-1.7-0.9c-0.4,0.1-0.8,0.5-0.9,0.9l-19.3,45.9c-0.3,0.8,0,1.8,0.9,2.1c0.2,0.1,0.4,0.1,0.6,0.1h21.2
		c1.3,0,2.5,0.8,3,2l9.3,20.6c0.8,1.9-0.1,4.2-2,5c-0.5,0.2-1,0.3-1.5,0.3H53.7c-1.9,0-3.5-1.6-3.5-3.5c0-0.5,0.1-0.9,0.3-1.4
		L99.6,54.1c1-2.5,3.5-4.2,6.2-4.1h28.3c2.7,0,5.2,1.6,6.2,4.1L189.8,171c0.8,1.8-0.1,3.9-1.8,4.6
		C187.5,175.8,187.1,175.9,186.6,175.9L186.6,175.9z"/>
	<polyline fill="#E53523" points="194.6,0 240,45.3 240,87.2 152.9,0 	"/>
</g>
<g id="uuid-92fe6043-87ed-49bb-9556-a97324c7f1c9">
	<g enable-background="new    ">
		<path fill="#FFFFFF" d="M195.8,13.2c0.1-0.1,0.1-0.1,0.2,0c0.6,0.5,1.8,1.7,2.6,2.5c3,3,1.7,5,0.8,5.9c-1.1,1.1-2.4,1.1-3.1,1
			c0.3,0.9,0.6,2.5-0.8,3.9c-2,2-4.6,1.2-6.9-1c-1-1-1.9-1.9-2.5-2.5c-0.1-0.1,0-0.1,0-0.2L195.8,13.2z M188.4,23
			c0.3,0.3,0.8,0.8,1.2,1.3c1.6,1.7,3.3,2.2,4.6,0.9c0.8-0.8,1-1.9,0.3-3c-0.2-0.4-0.6-0.8-1.1-1.3l-1.5-1.5L188.4,23z M193,18.4
			l1.4,1.4c0.6,0.6,1.1,1.2,1.3,1.5c0.7,0.1,1.6,0.1,2.3-0.7c1.1-1.1,0.8-2.4-0.6-3.9c-0.5-0.5-1.1-1.1-1.4-1.3L193,18.4z"/>
	</g>
	<g enable-background="new    ">
		<path fill="#FFFFFF" d="M200.3,36.9c-0.1,0.1-0.1,0-0.2,0l-5.6-5.6c-0.1-0.1-0.1-0.1,0-0.2l9.6-9.6c0.1-0.1,0.1-0.1,0.2,0l5.4,5.4
			c0.1,0.1,0.1,0.1,0,0.2l-0.8,1.1c0,0.1-0.1,0.1-0.2,0l-4.4-4.4l-3.1,3.1l4,4c0.1,0.1,0.1,0.1,0,0.2l-1,0.9c-0.1,0.1-0.1,0-0.2,0
			l-4-4l-3.3,3.3l4.7,4.7c0.1,0.1,0.1,0.1,0,0.2L200.3,36.9z"/>
	</g>
	<g enable-background="new    ">
		<path fill="#FFFFFF" d="M212.9,32.3l-3.2-3.2c-0.1-0.1-0.1-0.1,0-0.2l1.1-0.8c0.1,0,0.1,0,0.2,0l7.3,7.3c0.1,0.1,0.1,0.1,0,0.2
			l-0.8,1c-0.1,0.1-0.1,0.1-0.2,0l-3.2-3.2l-8.6,8.6c-0.1,0.1-0.1,0.1-0.2,0l-1-1c-0.1-0.1-0.1-0.1,0-0.2L212.9,32.3z"/>
	</g>
	<g enable-background="new    ">
		<path fill="#FFFFFF" d="M213.1,43.7l-4.1,1.9c-0.1,0-0.1,0-0.2,0l-1-1c-0.1-0.1-0.1-0.1,0-0.2l12.2-5.8c0.2-0.1,0.3-0.1,0.7-0.5
			c0,0,0.1,0,0.1,0l1.5,1.5c0.1,0.1,0.1,0.1,0,0.2l-6.1,13.1c0,0.1-0.1,0.1-0.2,0l-1.1-1.1c-0.1-0.1-0.1-0.1,0-0.2l1.9-4.1
			L213.1,43.7z M217.7,46c0.6-1.3,2.3-4.8,3-6.1l0,0c-1.2,0.7-3.9,2-6.1,3L217.7,46z"/>
	</g>
</g>
</svg>
