<svg xmlns="http://www.w3.org/2000/svg" viewBox="0 0 612 792" enable-background="new 0 0 612 792"><style type="text/css">.st0{fill:url(#SVGID_1_);} .st1{fill:#E2D8FF;} .st2{fill:#9F7FFF;}</style><radialGradient id="SVGID_1_" cx="97.71" cy="710.255" r="143.793" gradientTransform="matrix(2.782 0 0 -2.787 -27.818 2275.926)" gradientUnits="userSpaceOnUse"><stop offset="0" stop-color="#3C3256"/><stop offset=".767" stop-color="#130732"/></radialGradient><path class="st0" d="M0 96.7h612v599.2H0z"/><path class="st1" d="M247 397h-24l.1 159.4c7.4 3.8 16 6.8 23.9 9.6V397zm45-9.9V575c3.3.7 8.4 1.5 11.7 1.5 4.3 0 8-.3 12.3-.5V387l-24 .1zM431 520c8.7-9.2 17.4-20.3 24-31V368l-24.1-.1.1 152.1zM165.5 407.5l55.8-64.5 53 19.9 113.5-81.3 57.1 54.1 28.8-23-4.3-9.4-24 20.1-56.4-52.5-115.3 82.4-53.6-20.7-59.7 67.3-37.2 8.7v8.7l42.3-9.8zM177 446h-24v46.6c6.6 10.2 15.3 19.7 24 28.4v-75zm209-108h-24l.1 227.3c7.9-2.8 16.5-6.2 23.9-10.3V338z"/><path class="st2" d="M42.8 394.7c0 145.4 117.8 263.2 263.2 263.2s263.2-117.8 263.2-263.2S451.4 131.6 306 131.6 42.8 249.4 42.8 394.7zm27.1 0c0-130.6 105.8-236.4 236.1-236.4s236.1 105.8 236.1 236.4S436.3 631.1 306 631.1 69.9 525.3 69.9 394.7z"/></svg>